<svg width="27" height="33" viewBox="0 0 27 33" fill="none" xmlns="http://www.w3.org/2000/svg">
<path d="M13.5001 32.6032L4.21929 23.3224C2.38375 21.4868 1.13373 19.1482 0.627309 16.6022C0.120892 14.0562 0.38082 11.4172 1.37422 9.0189C2.36763 6.62063 4.04989 4.57079 6.20828 3.12861C8.36668 1.68642 10.9043 0.916656 13.5001 0.916656C16.096 0.916656 18.6336 1.68642 20.792 3.12861C22.9504 4.57079 24.6326 6.62063 25.626 9.0189C26.6194 11.4172 26.8794 14.0562 26.3729 16.6022C25.8665 19.1482 24.6165 21.4868 22.781 23.3224L13.5001 32.6032ZM20.7189 21.2603C22.1464 19.8326 23.1186 18.0136 23.5124 16.0334C23.9062 14.0532 23.704 12.0007 22.9313 10.1355C22.1586 8.27021 20.8502 6.67595 19.1715 5.55429C17.4927 4.43263 15.5191 3.83395 13.5001 3.83395C11.4812 3.83395 9.50752 4.43263 7.82879 5.55429C6.15006 6.67595 4.84163 8.27021 4.06896 10.1355C3.29628 12.0007 3.09406 14.0532 3.48787 16.0334C3.88167 18.0136 4.85382 19.8326 6.28138 21.2603L13.5001 28.479L20.7189 21.2603ZM13.5001 16.9582C12.7266 16.9582 11.9847 16.6509 11.4377 16.1039C10.8907 15.557 10.5835 14.8151 10.5835 14.0415C10.5835 13.268 10.8907 12.5261 11.4377 11.9791C11.9847 11.4322 12.7266 11.1249 13.5001 11.1249C14.2737 11.1249 15.0155 11.4322 15.5625 11.9791C16.1095 12.5261 16.4168 13.268 16.4168 14.0415C16.4168 14.8151 16.1095 15.557 15.5625 16.1039C15.0155 16.6509 14.2737 16.9582 13.5001 16.9582Z" fill="white"/>
</svg>
