<svg width="167" height="130" viewBox="0 0 167 130" fill="none" xmlns="http://www.w3.org/2000/svg">
<path d="M38.1361 16.7095C40.2496 16.709 42.3578 16.9205 44.4283 17.3409C48.4243 18.1563 52.2183 19.7459 55.5922 22.0185C60.2665 25.1571 64.001 29.4851 66.4034 34.5477C68.8057 39.6103 69.7872 45.2205 69.2445 50.7887C68.7019 56.3569 66.6552 61.6775 63.3196 66.1913C59.984 70.7051 55.4827 74.2454 50.2887 76.4402C48.4005 77.235 46.4373 77.8418 44.428 78.2518C40.0709 79.127 35.5755 79.0724 31.2414 78.0917C26.9073 77.1109 22.8339 75.2265 19.2925 72.5639C15.7511 69.9013 12.8231 66.5217 10.7035 62.6502C8.58394 58.7787 7.3214 54.5042 7.00004 50.1114C10.4166 50.9035 13.9656 50.9545 17.4039 50.2607C20.4892 49.6348 23.4199 48.4131 26.0288 46.6653C29.9069 44.0717 32.9424 40.4195 34.7677 36.1513C35.3844 34.7057 35.8551 33.2032 36.173 31.6658C36.8505 28.3716 36.8254 24.9734 36.0994 21.6894C35.7342 20.0472 35.1941 18.4481 34.4882 16.9189C35.699 16.7793 36.9171 16.7094 38.1361 16.7095Z" fill="#713FFD"/>
<g filter="url(#filter0_f_10_524)">
<path d="M59.2632 26.3194C52.2548 20.0679 43.0736 18.8506 38.7564 23.6006C34.4393 28.3506 36.621 37.2691 43.6294 43.5206C50.6378 49.7722 59.819 50.9894 64.1361 46.2394C68.4533 41.4895 66.2716 32.571 59.2632 26.3194Z" fill="#A586FC"/>
</g>
<g filter="url(#filter1_d_10_524)">
<path d="M99.8642 98H42.146C36.5469 97.9958 31.1665 95.846 27.1312 92.0007C23.0958 88.1553 20.7184 82.9126 20.4966 77.3701C20.2749 71.8276 22.226 66.4149 25.9414 62.2652C29.6569 58.1155 34.8486 55.5506 40.4299 55.1073C41.2258 49.5397 43.7636 44.3593 47.6864 40.295C51.6092 36.2308 56.7195 33.4872 62.2983 32.4502C67.8772 31.4133 73.6438 32.1352 78.7869 34.5143C83.93 36.8935 88.1908 40.8102 90.9697 45.7134C96.0668 43.9654 101.574 43.7612 106.789 45.1267C112.003 46.4923 116.689 49.3657 120.249 53.3805C123.808 57.3953 126.08 62.3694 126.774 67.6685C127.468 72.9675 126.553 78.3513 124.145 83.133C122.732 87.4532 119.975 91.219 116.267 93.8899C112.56 96.5609 108.094 97.9997 103.51 98H99.8642Z" fill="url(#paint0_linear_10_524)"/>
<path d="M103.51 97.7011C105.837 97.7011 108.126 97.333 110.312 96.6068C112.425 95.9047 114.41 94.88 116.21 93.5613C117.989 92.2578 119.549 90.6964 120.845 88.9203C122.158 87.1222 123.172 85.1441 123.858 83.0411L123.865 83.0195L123.876 82.9992C124.788 81.1927 125.491 79.2817 125.964 77.3192C126.452 75.2999 126.698 73.2133 126.698 71.1172C126.698 69.3134 126.515 67.5107 126.153 65.7594C125.801 64.0527 125.275 62.374 124.59 60.7698C123.917 59.1946 123.085 57.6754 122.116 56.2542C121.156 54.8465 120.053 53.5227 118.839 52.3197C117.625 51.1166 116.288 50.0244 114.867 49.0733C113.433 48.1132 111.899 47.2886 110.309 46.6224C108.69 45.9438 106.995 45.4227 105.273 45.0735C103.505 44.7151 101.685 44.5334 99.8643 44.5334C96.8494 44.5334 93.89 45.0249 91.0684 45.9943L90.8303 46.0761L90.7068 45.8586C88.4106 41.8137 85.0705 38.4167 81.0477 36.035C79.0133 34.8305 76.8276 33.8997 74.5514 33.2684C72.203 32.6172 69.7639 32.287 67.3015 32.287C63.9895 32.287 60.7565 32.8775 57.6923 34.0422C54.7321 35.1672 52.0165 36.7925 49.6211 38.8727C47.2394 40.9409 45.2629 43.3812 43.7465 46.1258C42.1929 48.9378 41.1775 51.9732 40.7284 55.1476L40.6948 55.3852L40.4534 55.404C37.7524 55.6134 35.1538 56.3179 32.7296 57.4979C30.3741 58.6444 28.2707 60.1952 26.4779 62.1071C22.7941 66.0357 20.7653 71.1542 20.7653 76.5198C20.7653 79.3794 21.3305 82.1533 22.4453 84.7644C22.9812 86.0195 23.6444 87.2299 24.4166 88.3623C25.1815 89.4839 26.0599 90.5387 27.0275 91.4972C27.9951 92.4558 29.0598 93.3261 30.192 94.0839C31.335 94.8489 32.5569 95.5059 33.8237 96.0367C36.4595 97.1412 39.2595 97.7011 42.146 97.7011H99.8643H103.51ZM103.51 97.9998H99.8643H42.146C30.1713 97.9998 20.4637 88.3829 20.4637 76.5198C20.4637 65.2288 29.2571 55.9726 40.4299 55.1062C42.2779 42.0416 53.6045 31.9883 67.3015 31.9883C77.463 31.9883 86.3197 37.5211 90.9696 45.7121C93.7562 44.7547 96.7488 44.2347 99.8643 44.2347C114.851 44.2347 127 56.2705 127 71.1172C127 75.4361 125.972 79.5169 124.145 83.1329C121.33 91.7599 113.155 97.9998 103.51 97.9998Z" fill="white" fill-opacity="0.5"/>
</g>
<defs>
<filter id="filter0_f_10_524" x="16.5399" y="0.703079" width="69.8127" height="68.4339" filterUnits="userSpaceOnUse" color-interpolation-filters="sRGB">
<feFlood flood-opacity="0" result="BackgroundImageFix"/>
<feBlend mode="normal" in="SourceGraphic" in2="BackgroundImageFix" result="shape"/>
<feGaussianBlur stdDeviation="10" result="effect1_foregroundBlur_10_524"/>
</filter>
<filter id="filter1_d_10_524" x="0.463745" y="3.98833" width="166.536" height="126.012" filterUnits="userSpaceOnUse" color-interpolation-filters="sRGB">
<feFlood flood-opacity="0" result="BackgroundImageFix"/>
<feColorMatrix in="SourceAlpha" type="matrix" values="0 0 0 0 0 0 0 0 0 0 0 0 0 0 0 0 0 0 127 0" result="hardAlpha"/>
<feOffset dx="10" dy="2"/>
<feGaussianBlur stdDeviation="15"/>
<feColorMatrix type="matrix" values="0 0 0 0 0.501961 0 0 0 0 0.501961 0 0 0 0 0.501961 0 0 0 0.302 0"/>
<feBlend mode="normal" in2="BackgroundImageFix" result="effect1_dropShadow_10_524"/>
<feBlend mode="normal" in="SourceGraphic" in2="effect1_dropShadow_10_524" result="shape"/>
</filter>
<linearGradient id="paint0_linear_10_524" x1="73.7394" y1="31.9891" x2="104.195" y2="106.316" gradientUnits="userSpaceOnUse">
<stop stop-color="white" stop-opacity="0.604"/>
<stop offset="1" stop-color="white" stop-opacity="0.2"/>
</linearGradient>
</defs>
</svg>
