<svg width="25" height="26" viewBox="0 0 25 26" fill="none" xmlns="http://www.w3.org/2000/svg">
<path d="M24.0222 25.1567C24.6897 24.4606 24.6897 23.362 24.0222 22.6658L18.6445 17.0569C19.8805 15.284 20.6113 13.1034 20.6113 10.7483C20.6113 4.8218 15.9883 0 10.3051 0C4.62301 0 0 4.8218 0 10.7483C0 16.6758 4.62301 21.4965 10.3051 21.4965C12.4593 21.4965 14.46 20.8039 16.1164 19.6208L21.4241 25.1567C22.1326 25.8956 23.3138 25.8956 24.0222 25.1567ZM3.0227 10.7483C3.0227 6.55942 6.29004 3.15157 10.3062 3.15157C14.3223 3.15157 17.5897 6.55942 17.5897 10.7483C17.5897 14.9371 14.3223 18.3449 10.3062 18.3449C6.28898 18.3449 3.0227 14.9371 3.0227 10.7483Z" fill="white"/>
</svg>
